<?xml version="1.0" encoding="utf-8"?>
<!-- Generator: Adobe Illustrator 16.0.0, SVG Export Plug-In . SVG Version: 6.00 Build 0)  -->
<!DOCTYPE svg PUBLIC "-//W3C//DTD SVG 1.1//EN" "http://www.w3.org/Graphics/SVG/1.1/DTD/svg11.dtd">
<svg version="1.1" id="Layer_1" xmlns="http://www.w3.org/2000/svg" xmlns:xlink="http://www.w3.org/1999/xlink" x="0px" y="0px"
	 width="1400px" height="980px" viewBox="0 0 1400 980" enable-background="new 0 0 1400 980" xml:space="preserve">
<g>
	<g>
		<g>
			<rect fill="#FFFFFF" width="1400" height="980"/>
		</g>
	</g>
	<g>
		<path fill="#FFFFFF" d="M1302.3,551.4H1290c0.8-2.5,1.2-5.1,1.2-7.9c0-14.5-11.7-26.2-26.2-26.2c-3.5,0-6.9,0.7-9.9,2
			c-3.6-23.1-23.4-40.7-47.5-40.7c-19,0-35.3,11-43.2,27c-4.5-3.4-10-5.4-16-5.4c-14,0-25.5,10.9-26.4,24.6
			c-2.9-1.2-6.1-1.9-9.4-1.9c-13.4,0-24.2,10.8-24.2,24.2c0,1.5,0.2,3,0.4,4.4h-13c-12.1,0-21.9,9.8-21.9,21.9
			c0,12.1,9.8,21.9,21.9,21.9h226.5c12.1,0,21.9-9.8,21.9-21.9C1324.1,561.2,1314.4,551.4,1302.3,551.4z"/>
		<path d="M1302.3,596.8h-226.5c-13,0-23.5-10.6-23.5-23.5s10.6-23.5,23.5-23.5h11c-0.1-0.9-0.2-1.8-0.2-2.7
			c0-14.3,11.6-25.9,25.9-25.9c2.8,0,5.4,0.4,8,1.3c2-13.6,13.9-24,27.8-24c5.5,0,10.8,1.6,15.4,4.6c8.7-16.2,25.3-26.2,43.8-26.2
			c24,0,44.2,16.8,48.8,40.1c2.8-0.9,5.7-1.4,8.7-1.4c15.4,0,27.9,12.5,27.9,27.9c0,2.1-0.2,4.2-0.7,6.2h10.1
			c13,0,23.5,10.6,23.5,23.5S1315.3,596.8,1302.3,596.8z M1075.8,553c-11.1,0-20.2,9.1-20.2,20.2c0,11.1,9.1,20.2,20.2,20.2h226.5
			c11.1,0,20.2-9.1,20.2-20.2c0-11.1-9.1-20.2-20.2-20.2H1290c-0.5,0-1-0.3-1.3-0.7c-0.3-0.4-0.4-1-0.2-1.5c0.7-2.4,1.1-4.9,1.1-7.4
			c0-13.6-11-24.6-24.6-24.6c-3.2,0-6.3,0.6-9.3,1.8c-0.5,0.2-1,0.2-1.4-0.1c-0.4-0.3-0.7-0.7-0.8-1.2
			c-3.5-22.8-22.8-39.3-45.8-39.3c-17.8,0-33.8,10-41.7,26.1c-0.2,0.4-0.6,0.8-1.1,0.9c-0.5,0.1-1,0-1.4-0.3
			c-4.4-3.3-9.6-5.1-15-5.1c-13,0-23.9,10.1-24.8,23.1c0,0.5-0.3,1-0.8,1.3c-0.5,0.3-1,0.3-1.5,0.1c-2.8-1.2-5.7-1.8-8.8-1.8
			c-12.4,0-22.5,10.1-22.5,22.5c0,1.3,0.1,2.7,0.4,4.1c0.1,0.5,0,1-0.4,1.4c-0.3,0.4-0.8,0.6-1.3,0.6H1075.8z"/>
	</g>
	<g>
		<g>
			<path fill="#90A8EB" d="M781.8,327l0.8-0.5L924,379.1c-12.8-25.4-29.8-48.3-50-68c-45.5-44.1-107.5-71.3-175.8-71.5
				C731.4,262.9,759.9,292.6,781.8,327z"/>
			<path d="M924,380.7c-0.2,0-0.4,0-0.6-0.1l-140.6-52.3l-0.1,0.1c-0.8,0.5-1.8,0.2-2.2-0.5c-21.9-34.3-49.9-63.6-83.3-86.9
				c-0.6-0.4-0.8-1.2-0.6-1.9c0.2-0.7,0.9-1,1.6-1.2c66.4,0.2,129.2,25.8,177,72c20.4,19.8,37.3,42.7,50.2,68
				c0.3,0.3,0.4,0.7,0.4,1.1C925.7,380,925,380.8,924,380.7C924,380.7,924,380.7,924,380.7z M782.6,324.9c0.2,0,0.4,0,0.6,0.1
				L920.5,376c-12.5-23.6-28.5-45.1-47.8-63.7c-45.8-44.4-105.8-69.5-169.4-71c31.4,22.8,58,50.9,79.1,83.6
				C782.5,324.9,782.6,324.9,782.6,324.9z"/>
		</g>
		<g>
			<path fill="#9CB8FF" d="M781.8,327c4.9,7.6,9.4,15.5,13.6,23.5c22.3,42.7,34.9,91.3,34.9,142.8h120.8c0-41.1-9.8-79.9-27.2-114.2
				l-141.4-52.6L781.8,327z"/>
			<path d="M951.1,495H830.4c-0.9,0-1.7-0.7-1.7-1.7c0-50-11.7-97.8-34.7-142c-4.1-7.9-8.6-15.7-13.5-23.4c-0.2-0.4-0.3-0.8-0.2-1.3
				s0.4-0.8,0.8-1l0.8-0.5c0.4-0.3,0.9-0.3,1.4-0.1l141.4,52.6c0.4,0.1,0.7,0.4,0.9,0.8c18.1,35.9,27.3,74.6,27.3,115
				C952.8,494.2,952.1,495,951.1,495z M832,491.7h117.5c-0.2-39.1-9.2-76.5-26.7-111.2l-137.6-51.2c4.2,6.7,8.1,13.6,11.7,20.5
				C819.9,393.9,831.8,441.7,832,491.7z"/>
		</g>
		<g>
			<path fill="#9CB8FF" d="M613,327c21.9-34.3,50.4-64.1,83.7-87.4c-68.3,0.2-130.3,27.4-175.8,71.5c-20.2,19.6-37.2,42.6-50,68
				l141.4-52.6L613,327z"/>
			<path d="M470.8,380.7c-0.5,0-0.9-0.2-1.2-0.6c-0.5-0.5-0.6-1.2-0.2-1.9c12.9-25.5,29.8-48.5,50.4-68.4
				c47.7-46.2,110.6-71.8,177-72c0,0,0,0,0,0c0.7,0,1.4,0.5,1.6,1.2c0.2,0.7,0,1.4-0.6,1.9c-33.4,23.4-61.4,52.6-83.3,86.9
				c-0.5,0.8-1.5,1-2.2,0.5l-0.1-0.1l-140.6,52.3C471.2,380.7,471,380.7,470.8,380.7z M691.4,241.3c-63.6,1.5-123.5,26.6-169.4,71
				c-19.2,18.7-35.3,40.1-47.8,63.7L611.6,325c0.2-0.1,0.5-0.1,0.7-0.1C633.4,292.2,660,264.1,691.4,241.3z"/>
		</g>
		<g>
			<path fill="#90A8EB" d="M599.4,350.5c4.2-8.1,8.7-15.9,13.6-23.5l-0.8-0.5l-141.4,52.6c-17.4,34.3-27.2,73.1-27.2,114.2h120.8
				C564.4,441.8,577.1,393.2,599.4,350.5z"/>
			<path d="M564.4,495H443.7c-0.9,0-1.7-0.7-1.7-1.7c0-40.4,9.2-79.1,27.3-115c0.2-0.4,0.5-0.7,0.9-0.8L611.6,325
				c0.5-0.2,1-0.1,1.4,0.1l0.8,0.5c0.4,0.2,0.7,0.6,0.8,1c0.1,0.4,0,0.9-0.2,1.3c-4.9,7.7-9.4,15.5-13.5,23.4
				c-23,44.2-34.7,92-34.7,142C566.1,494.2,565.3,495,564.4,495z M445.3,491.7h117.5c0.3-49.9,12.1-97.7,35.1-141.9
				c3.6-6.9,7.5-13.8,11.7-20.5L472,380.4C454.5,415.2,445.6,452.6,445.3,491.7z"/>
		</g>
		<g>
			<path fill="#9CB8FF" d="M698.1,239.6c-0.2-0.2-0.5-0.3-0.7-0.5c-0.2,0.2-0.5,0.3-0.7,0.5c0.2,0,0.5,0,0.7,0
				C697.6,239.6,697.9,239.6,698.1,239.6z"/>
			<path d="M698.1,241.2l-1,0l-0.4,0c-0.7,0-1.4-0.5-1.6-1.2c-0.2-0.7,0-1.4,0.6-1.9l0.7-0.5c0.6-0.4,1.4-0.4,1.9,0l0.7,0.5
				c0.6,0.4,0.8,1.2,0.6,1.9C699.5,240.8,698.8,241.2,698.1,241.2z"/>
		</g>
		<g>
			<path fill="#90A8EB" d="M613,327l84.4,50.2v-10.7V239.6c-0.2,0-0.5,0-0.7,0C663.4,262.9,634.9,292.6,613,327z"/>
			<path d="M697.4,378.8c-0.3,0-0.6-0.1-0.8-0.2l-84.4-50.2c-0.4-0.2-0.7-0.6-0.8-1c-0.1-0.4,0-0.9,0.2-1.3
				c22.1-34.7,50.4-64.2,84.2-87.9c0.3-0.2,0.6-0.3,1-0.3l0.7,0c0.9,0,1.7,0.7,1.7,1.7v137.6c0,0.6-0.3,1.1-0.8,1.4
				C698,378.7,697.7,378.8,697.4,378.8z M615.3,326.4l80.4,47.8v-132C663.7,265.1,636.6,293.4,615.3,326.4z"/>
		</g>
		<g>
			<path fill="#9CB8FF" d="M697.4,377.1L613,327c-4.9,7.6-9.4,15.5-13.6,23.5c-22.3,42.7-34.9,91.3-34.9,142.8h133V377.1z"/>
			<path d="M697.4,495h-133c-0.9,0-1.7-0.7-1.7-1.7c0-50.6,11.8-98.9,35.1-143.6c4.1-8,8.7-15.9,13.7-23.7c0.5-0.8,1.5-1,2.2-0.5
				l84.4,50.2c0.5,0.3,0.8,0.8,0.8,1.4v116.2C699,494.2,698.3,495,697.4,495z M566.1,491.7h129.6V378.1l-82.2-48.9
				c-4.6,7.2-8.8,14.6-12.7,22C578,395,566.3,442.2,566.1,491.7z"/>
		</g>
		<g>
			<path fill="#90A8EB" d="M781.8,327l-84.4,50.2h0v116.2h133c0-51.5-12.6-100.1-34.9-142.8C791.2,342.4,786.7,334.6,781.8,327z"/>
			<path d="M830.4,495h-133c-0.9,0-1.7-0.7-1.7-1.7V377.1c0-0.6,0.3-1.1,0.8-1.4l84.4-50.2c0.8-0.5,1.8-0.2,2.2,0.5
				c4.9,7.7,9.5,15.7,13.7,23.6c23.3,44.7,35.1,93,35.1,143.6C832,494.2,831.3,495,830.4,495z M699,491.7h129.7
				c-0.3-49.4-11.9-96.7-34.7-140.4c-3.9-7.4-8.1-14.8-12.7-22L699,378.1L699,491.7z"/>
		</g>
		<g>
			<path fill="#9CB8FF" d="M697.4,366.4v10.7h0l84.4-50.2c-21.9-34.3-50.4-64.1-83.7-87.4c-0.2,0-0.5,0-0.7,0V366.4z"/>
			<path d="M697.4,378.8c-0.3,0-0.6-0.1-0.8-0.2c-0.5-0.3-0.8-0.8-0.8-1.4l0-137.6c0-0.9,0.7-1.7,1.7-1.7l0.4,0c0.3,0,1,0.1,1.2,0.3
				c33.7,23.6,62,53.2,84.2,87.9c0.2,0.4,0.3,0.8,0.2,1.3c-0.1,0.4-0.4,0.8-0.8,1l-84.4,50.2C698,378.7,697.7,378.8,697.4,378.8z
				 M699,242.3v132l80.5-47.8C758.2,293.4,731.1,265.1,699,242.3z"/>
		</g>
		<g>
			<path fill="#90A8EB" d="M830.4,493.3c0,51.5-12.6,100.1-34.9,142.8c-4.2,8.1-8.7,15.9-13.6,23.5l0.8,0.5L924,607.5
				c17.4-34.3,27.2-73.1,27.2-114.2H830.4z"/>
			<path d="M782.6,661.8c-0.3,0-0.6-0.1-0.8-0.2l-0.8-0.5c-0.4-0.2-0.7-0.6-0.8-1c-0.1-0.4,0-0.9,0.2-1.3
				c4.9-7.7,9.4-15.5,13.5-23.4c23.1-44.2,34.7-92,34.7-142c0-0.9,0.7-1.7,1.7-1.7h120.8c0.9,0,1.7,0.7,1.7,1.7
				c0,40.4-9.2,79.1-27.3,115c-0.2,0.4-0.5,0.7-0.9,0.8l-141.4,52.6C783,661.7,782.8,661.8,782.6,661.8z M832,495
				c-0.3,50-12.1,97.7-35.1,141.9c-3.6,6.9-7.5,13.8-11.7,20.5l137.6-51.2c17.5-34.8,26.4-72.2,26.7-111.2H832z"/>
		</g>
		<g>
			<path fill="#9CB8FF" d="M781.8,659.6c-21.9,34.3-50.4,64.1-83.7,87.4c68.4-0.2,130.3-27.4,175.8-71.6
				c20.2-19.6,37.2-42.5,50-67.9l-141.4,52.6L781.8,659.6z"/>
			<path d="M698.1,748.7c-0.7,0-1.4-0.5-1.6-1.2c-0.2-0.7,0-1.4,0.6-1.9c33.4-23.4,61.4-52.6,83.3-86.9c0.5-0.8,1.5-1,2.2-0.5
				l0.1,0.1L923.4,606c0.6-0.2,1.4-0.1,1.8,0.5c0.5,0.5,0.5,1.2,0.2,1.9c-12.9,25.5-29.8,48.5-50.4,68.4
				C827.4,722.9,764.5,748.5,698.1,748.7C698.1,748.7,698.1,748.7,698.1,748.7z M782.4,661.8c-21.1,32.7-47.6,60.8-79.1,83.5
				c63.6-1.5,123.6-26.6,169.4-71c19.2-18.6,35.3-40.1,47.8-63.7l-137.3,51.1C782.9,661.8,782.7,661.8,782.4,661.8z"/>
		</g>
		<g>
			<path fill="#90A8EB" d="M613,659.6l-0.8,0.5l-141.3-52.6c12.8,25.4,29.8,48.3,50,67.9c45.5,44.1,107.5,71.4,175.8,71.6
				C663.4,723.7,634.9,694,613,659.6z"/>
			<path d="M696.7,748.7C696.7,748.7,696.7,748.7,696.7,748.7c-66.4-0.2-129.3-25.8-177-72c-20.5-19.9-37.5-42.9-50.4-68.4
				c-0.3-0.6-0.2-1.3,0.2-1.9c0.5-0.5,1.2-0.7,1.8-0.4L612,658.3l0.1-0.1c0.8-0.5,1.8-0.2,2.2,0.5c21.9,34.3,49.9,63.6,83.3,86.9
				c0.6,0.4,0.8,1.2,0.6,1.9C698,748.2,697.4,748.7,696.7,748.7z M474.3,610.6c12.5,23.6,28.5,45,47.7,63.7
				c45.8,44.4,105.8,69.5,169.4,71c-31.4-22.8-58-50.9-79-83.5c-0.3,0-0.5,0-0.8-0.1L474.3,610.6z"/>
		</g>
		<g>
			<path fill="#9CB8FF" d="M613,659.6c-4.9-7.6-9.4-15.5-13.6-23.5c-22.3-42.7-34.9-91.3-34.9-142.8H443.7
				c0,41.1,9.8,79.9,27.2,114.2l141.3,52.6L613,659.6z"/>
			<path d="M612.2,661.8c-0.2,0-0.4,0-0.6-0.1l-141.3-52.6c-0.4-0.1-0.7-0.4-0.9-0.8c-18.2-35.9-27.4-74.6-27.4-115
				c0-0.9,0.7-1.7,1.7-1.7h120.8c0.9,0,1.7,0.7,1.7,1.7c0,50,11.7,97.8,34.7,142c4.1,7.9,8.7,15.8,13.5,23.4
				c0.2,0.4,0.3,0.8,0.2,1.3c-0.1,0.4-0.4,0.8-0.8,1l-0.8,0.5C612.8,661.7,612.5,661.8,612.2,661.8z M472,606.2l137.6,51.2
				c-4.2-6.7-8.1-13.6-11.7-20.5c-23-44.2-34.9-92-35.1-141.9H445.3C445.6,534.1,454.5,571.5,472,606.2z"/>
		</g>
		<g>
			<path fill="#9CB8FF" d="M696.7,747c0.2,0.2,0.5,0.3,0.7,0.5c0.2-0.2,0.5-0.3,0.7-0.5c-0.2,0-0.5,0-0.7,0
				C697.2,747,696.9,747,696.7,747z"/>
			<path d="M697.4,749.2c-0.3,0-0.7-0.1-0.9-0.3l-0.7-0.5c-0.6-0.4-0.9-1.2-0.7-1.9c0.2-0.7,0.9-1.2,1.6-1.2l1,0l0.4,0
				c0.7,0,1.4,0.5,1.6,1.2c0.2,0.7,0,1.4-0.6,1.9l-0.7,0.5C698,749.1,697.7,749.2,697.4,749.2z"/>
		</g>
		<g>
			<path fill="#90A8EB" d="M564.4,493.3c0,51.5,12.7,100.1,34.9,142.8c4.2,8.1,8.7,15.9,13.6,23.5l84.4-50.2V493.3H564.4z"/>
			<path d="M613,661.3c-0.5,0-1.1-0.3-1.4-0.8c-4.9-7.7-9.5-15.7-13.7-23.7c-23.3-44.7-35.1-93-35.1-143.6c0-0.9,0.7-1.7,1.7-1.7
				h133c0.9,0,1.7,0.7,1.7,1.7v116.2c0,0.6-0.3,1.1-0.8,1.4l-84.4,50.2C613.5,661.2,613.3,661.3,613,661.3z M566.1,495
				c0.3,49.4,11.9,96.6,34.7,140.4c3.9,7.4,8.1,14.8,12.7,22l82.2-48.9V495H566.1z"/>
		</g>
		<g>
			<path fill="#9CB8FF" d="M697.4,620.2v-10.7L613,659.6c21.9,34.3,50.4,64.1,83.7,87.4c0.2,0,0.5,0,0.7,0V620.2z"/>
			<path d="M697.4,748.7l-0.4,0c-0.3,0-1-0.1-1.3-0.3c-33.7-23.6-62-53.2-84.2-87.9c-0.2-0.4-0.3-0.8-0.2-1.3c0.1-0.4,0.4-0.8,0.8-1
				l84.4-50.2c0.5-0.3,1.1-0.3,1.7,0c0.5,0.3,0.8,0.8,0.8,1.4V747C699,748,698.3,748.7,697.4,748.7z M615.3,660.2
				c21.3,33,48.4,61.3,80.4,84.1V612.4L615.3,660.2z"/>
		</g>
		<g>
			<path fill="#90A8EB" d="M781.8,659.6l-84.4-50.2l0,0v10.7V747c0.2,0,0.5,0,0.7,0C731.4,723.7,759.9,694,781.8,659.6z"/>
			<path d="M697.4,748.7c-0.9,0-1.7-0.7-1.7-1.7V609.5c0-0.5,0.2-1,0.7-1.3c0.5-0.4,1.3-0.5,1.9-0.1l84.4,50.2
				c0.4,0.2,0.7,0.6,0.8,1c0.1,0.4,0,0.9-0.2,1.3c-22.1,34.7-50.5,64.3-84.2,87.9c-0.3,0.2-0.6,0.3-0.9,0.3L697.4,748.7z M699,612.4
				v131.9c32.1-22.8,59.1-51.1,80.5-84.1L699,612.4z"/>
		</g>
		<g>
			<path fill="#9CB8FF" d="M697.4,609.5L697.4,609.5l84.4,50.2c4.9-7.6,9.4-15.5,13.6-23.5c22.3-42.7,34.9-91.3,34.9-142.8h-133
				V609.5z"/>
			<path d="M781.8,661.3c-0.3,0-0.6-0.1-0.8-0.2L696.7,611c0,0,0,0,0,0c-0.6-0.3-0.9-0.8-0.9-1.5V493.3c0-0.9,0.7-1.7,1.7-1.7h133
				c0.9,0,1.7,0.7,1.7,1.7c0,50.6-11.8,98.9-35.1,143.6c-4.1,7.9-8.7,15.9-13.7,23.7C782.9,661,782.4,661.3,781.8,661.3z M699,608.5
				l82.2,48.9c4.6-7.2,8.8-14.6,12.7-22c22.8-43.7,34.5-91,34.7-140.4H699V608.5z"/>
		</g>
	</g>
	<g>
		<circle fill="#FFFFFF" cx="470.8" cy="379.1" r="24.1"/>
		<path d="M470.8,404.8c-14.2,0-25.7-11.5-25.7-25.7c0-14.2,11.5-25.7,25.7-25.7c14.2,0,25.7,11.5,25.7,25.7
			C496.6,393.3,485,404.8,470.8,404.8z M470.8,356.7c-12.4,0-22.4,10.1-22.4,22.4s10.1,22.4,22.4,22.4s22.4-10.1,22.4-22.4
			S483.2,356.7,470.8,356.7z"/>
	</g>
	<g>
		<circle fill="#FFFFFF" cx="470.8" cy="607.5" r="24.1"/>
		<path d="M470.8,633.3c-14.2,0-25.7-11.5-25.7-25.7s11.5-25.7,25.7-25.7c14.2,0,25.7,11.5,25.7,25.7S485,633.3,470.8,633.3z
			 M470.8,585.1c-12.4,0-22.4,10.1-22.4,22.4c0,12.4,10.1,22.4,22.4,22.4s22.4-10.1,22.4-22.4C493.2,595.2,483.2,585.1,470.8,585.1z
			"/>
	</g>
	<g>
		<path fill="#FFFFFF" d="M720.8,377.1c0,13.3-10.8,24.1-24.1,24.1c-13.3,0-24.1-10.8-24.1-24.1c0-13.3,10.8-24.1,24.1-24.1
			C710,353.1,720.8,363.8,720.8,377.1z"/>
		<path d="M696.7,402.9c-14.2,0-25.7-11.5-25.7-25.7c0-14.2,11.5-25.7,25.7-25.7c14.2,0,25.7,11.5,25.7,25.7
			C722.4,391.3,710.9,402.9,696.7,402.9z M696.7,354.7c-12.4,0-22.4,10.1-22.4,22.4c0,12.4,10.1,22.4,22.4,22.4
			c12.4,0,22.4-10.1,22.4-22.4C719.1,364.8,709,354.7,696.7,354.7z"/>
	</g>
	<g>
		<circle fill="#FFFFFF" cx="696.7" cy="609.5" r="24.1"/>
		<path d="M696.7,635.2c-14.2,0-25.7-11.5-25.7-25.7s11.5-25.7,25.7-25.7c14.2,0,25.7,11.5,25.7,25.7S710.9,635.2,696.7,635.2z
			 M696.7,587.1c-12.4,0-22.4,10.1-22.4,22.4c0,12.4,10.1,22.4,22.4,22.4c12.4,0,22.4-10.1,22.4-22.4
			C719.1,597.1,709,587.1,696.7,587.1z"/>
	</g>
	<g>
		<circle fill="#FFFFFF" cx="922.7" cy="379.1" r="24.1"/>
		<path d="M922.7,404.8c-14.2,0-25.7-11.5-25.7-25.7c0-14.2,11.5-25.7,25.7-25.7s25.7,11.5,25.7,25.7
			C948.5,393.3,936.9,404.8,922.7,404.8z M922.7,356.7c-12.4,0-22.4,10.1-22.4,22.4c0,12.4,10.1,22.4,22.4,22.4
			c12.4,0,22.4-10.1,22.4-22.4C945.2,366.7,935.1,356.7,922.7,356.7z"/>
	</g>
	<g>
		<path fill="#FFFFFF" d="M853.2,493.3c0,13.3-10.8,24.1-24.1,24.1c-13.3,0-24.1-10.8-24.1-24.1c0-13.3,10.8-24.1,24.1-24.1
			C842.4,469.2,853.2,480,853.2,493.3z"/>
		<path d="M829.1,519.1c-14.2,0-25.7-11.5-25.7-25.7c0-14.2,11.5-25.7,25.7-25.7s25.7,11.5,25.7,25.7
			C854.9,507.5,843.3,519.1,829.1,519.1z M829.1,470.9c-12.4,0-22.4,10.1-22.4,22.4c0,12.4,10.1,22.4,22.4,22.4
			c12.4,0,22.4-10.1,22.4-22.4C851.6,481,841.5,470.9,829.1,470.9z"/>
	</g>
	<g>
		<path fill="#FFFFFF" d="M588.5,493.3c0,13.3-10.8,24.1-24.1,24.1c-13.3,0-24.1-10.8-24.1-24.1c0-13.3,10.8-24.1,24.1-24.1
			C577.7,469.2,588.5,480,588.5,493.3z"/>
		<path d="M564.4,519.1c-14.2,0-25.7-11.5-25.7-25.7c0-14.2,11.5-25.7,25.7-25.7c14.2,0,25.7,11.5,25.7,25.7
			C590.2,507.5,578.6,519.1,564.4,519.1z M564.4,470.9c-12.4,0-22.4,10.1-22.4,22.4c0,12.4,10.1,22.4,22.4,22.4s22.4-10.1,22.4-22.4
			C586.9,481,576.8,470.9,564.4,470.9z"/>
	</g>
	<g>
		<circle fill="#FFFFFF" cx="922.7" cy="607.5" r="24.1"/>
		<path d="M922.7,633.3c-14.2,0-25.7-11.5-25.7-25.7s11.5-25.7,25.7-25.7s25.7,11.5,25.7,25.7S936.9,633.3,922.7,633.3z
			 M922.7,585.1c-12.4,0-22.4,10.1-22.4,22.4c0,12.4,10.1,22.4,22.4,22.4c12.4,0,22.4-10.1,22.4-22.4
			C945.2,595.2,935.1,585.1,922.7,585.1z"/>
	</g>
	<g>
		<g>
			<path fill="#231F20" d="M1131,332.8c-107.6,0-195.2-35.8-195.2-79.8c0-44,87.5-79.8,195.2-79.8c107.6,0,195.2,35.8,195.2,79.8
				C1326.1,297,1238.6,332.8,1131,332.8z M1131,176.4c-105.8,0-191.8,34.3-191.8,76.5c0,42.2,86.1,76.5,191.8,76.5
				c105.8,0,191.8-34.3,191.8-76.5C1322.8,210.8,1236.8,176.4,1131,176.4z"/>
		</g>
		<g>
			<path fill="#231F20" d="M1131,332.8c-107.6,0-195.2-35.8-195.2-79.8c0-44,87.5-79.8,195.2-79.8c107.6,0,195.2,35.8,195.2,79.8
				C1326.1,297,1238.6,332.8,1131,332.8z M1131,176.4c-105.8,0-191.8,34.3-191.8,76.5c0,42.2,86.1,76.5,191.8,76.5
				c105.8,0,191.8-34.3,191.8-76.5C1322.8,210.8,1236.8,176.4,1131,176.4z"/>
		</g>
		<g>
			<path fill="#231F20" d="M1209.8,426.7c-41.6,0-102.4-55-147.9-133.9c-25.9-44.9-43.3-91.3-48.8-130.5
				c-5.6-39.7,1.6-67.6,20.4-78.4c5.5-3.2,11.8-4.8,18.8-4.8c41.6,0,102.4,55,147.9,133.8c25.9,44.9,43.3,91.3,48.8,130.5
				c5.6,39.7-1.6,67.6-20.4,78.4C1223.1,425.1,1216.8,426.7,1209.8,426.7z M1052.2,82.5c-6.4,0-12.2,1.5-17.1,4.3
				c-17.5,10.1-24.1,36.7-18.7,75.1c5.5,38.8,22.6,84.8,48.4,129.3c44.2,76.6,105.2,132.2,145,132.2c6.4,0,12.2-1.5,17.1-4.3
				c17.5-10.1,24.1-36.7,18.7-75.1c-5.5-38.8-22.6-84.8-48.4-129.3C1153,138.1,1092,82.5,1052.2,82.5z"/>
		</g>
		<g>
			<path fill="#231F20" d="M1209.8,426.7c-41.6,0-102.4-55-147.9-133.9c-25.9-44.9-43.3-91.3-48.8-130.5
				c-5.6-39.7,1.6-67.6,20.4-78.4c5.5-3.2,11.8-4.8,18.8-4.8c41.6,0,102.4,55,147.9,133.8c25.9,44.9,43.3,91.3,48.8,130.5
				c5.6,39.7-1.6,67.6-20.4,78.4C1223.1,425.1,1216.8,426.7,1209.8,426.7z M1052.2,82.5c-6.4,0-12.2,1.5-17.1,4.3
				c-17.5,10.1-24.1,36.7-18.7,75.1c5.5,38.8,22.6,84.8,48.4,129.3c44.2,76.6,105.2,132.2,145,132.2c6.4,0,12.2-1.5,17.1-4.3
				c17.5-10.1,24.1-36.7,18.7-75.1c-5.5-38.8-22.6-84.8-48.4-129.3C1153,138.1,1092,82.5,1052.2,82.5z"/>
		</g>
		<g>
			<path fill="#231F20" d="M1052.2,426.7c-7,0-13.3-1.6-18.8-4.8c-18.7-10.8-25.9-38.6-20.4-78.4c5.5-39.2,22.8-85.6,48.8-130.5
				c45.5-78.8,106.3-133.8,147.9-133.8c7,0,13.3,1.6,18.8,4.8c18.7,10.8,25.9,38.6,20.3,78.4c-5.5,39.2-22.8,85.6-48.8,130.5
				C1154.6,371.7,1093.8,426.7,1052.2,426.7z M1209.8,82.5c-39.8,0-100.8,55.6-145.1,132.2c-25.7,44.6-42.9,90.5-48.4,129.3
				c-5.4,38.3,1.3,65,18.7,75.1c5,2.9,10.7,4.3,17.1,4.3c39.8,0,100.8-55.6,145-132.2c25.7-44.6,42.9-90.5,48.4-129.3
				c5.4-38.3-1.3-65-18.7-75.1C1221.9,84,1216.2,82.5,1209.8,82.5z"/>
		</g>
		<g>
			<path fill="#231F20" d="M1052.2,426.7c-7,0-13.3-1.6-18.8-4.8c-18.7-10.8-25.9-38.6-20.4-78.4c5.5-39.2,22.8-85.6,48.8-130.5
				c45.5-78.8,106.3-133.8,147.9-133.8c7,0,13.3,1.6,18.8,4.8c18.7,10.8,25.9,38.6,20.3,78.4c-5.5,39.2-22.8,85.6-48.8,130.5
				C1154.6,371.7,1093.8,426.7,1052.2,426.7z M1209.8,82.5c-39.8,0-100.8,55.6-145.1,132.2c-25.7,44.6-42.9,90.5-48.4,129.3
				c-5.4,38.3,1.3,65,18.7,75.1c5,2.9,10.7,4.3,17.1,4.3c39.8,0,100.8-55.6,145-132.2c25.7-44.6,42.9-90.5,48.4-129.3
				c5.4-38.3-1.3-65-18.7-75.1C1221.9,84,1216.2,82.5,1209.8,82.5z"/>
		</g>
		<g>
			<g>
				<g>
					<path fill="#231F20" d="M1182.8,237h-103.7c-0.9,0-1.7-0.7-1.7-1.7v-32.7c0-0.9,0.7-1.7,1.7-1.7h103.7c0.9,0,1.7,0.7,1.7,1.7
						v32.7C1184.5,236.3,1183.8,237,1182.8,237z M1080.8,233.7h100.4v-29.4h-100.4V233.7z"/>
				</g>
				<g>
					<path fill="#231F20" d="M1182.8,304.9h-103.7c-0.9,0-1.7-0.7-1.7-1.7v-32.7c0-0.9,0.7-1.7,1.7-1.7h103.7c0.9,0,1.7,0.7,1.7,1.7
						v32.7C1184.5,304.1,1183.8,304.9,1182.8,304.9z M1080.8,301.5h100.4v-29.4h-100.4V301.5z"/>
				</g>
				<g>
					<path fill="#231F20" d="M1182.8,272.2h-103.7c-0.9,0-1.7-0.7-1.7-1.7v-35.1c0-0.9,0.7-1.7,1.7-1.7h103.7c0.9,0,1.7,0.7,1.7,1.7
						v35.1C1184.5,271.4,1183.8,272.2,1182.8,272.2z M1080.8,268.9h100.4V237h-100.4V268.9z"/>
				</g>
			</g>
			<g>
				<path fill="#231F20" d="M1166.1,224.6c-3.1,0-5.6-2.5-5.6-5.6c0-3.1,2.5-5.6,5.6-5.6c3.1,0,5.6,2.5,5.6,5.6
					C1171.7,222.1,1169.2,224.6,1166.1,224.6z M1166.1,216.8c-1.2,0-2.3,1-2.3,2.3c0,1.2,1,2.3,2.3,2.3c1.2,0,2.3-1,2.3-2.3
					C1168.4,217.8,1167.4,216.8,1166.1,216.8z"/>
			</g>
			<g>
				<path fill="#231F20" d="M1150.4,224.6c-3.1,0-5.6-2.5-5.6-5.6c0-3.1,2.5-5.6,5.6-5.6s5.6,2.5,5.6,5.6
					C1156,222.1,1153.5,224.6,1150.4,224.6z M1150.4,216.8c-1.2,0-2.3,1-2.3,2.3c0,1.2,1,2.3,2.3,2.3c1.3,0,2.3-1,2.3-2.3
					C1152.7,217.8,1151.6,216.8,1150.4,216.8z"/>
			</g>
			<g>
				<path fill="#231F20" d="M1131,220.7h-40.2c-0.9,0-1.7-0.7-1.7-1.7c0-0.9,0.7-1.7,1.7-1.7h40.2c0.9,0,1.7,0.7,1.7,1.7
					C1132.6,220,1131.9,220.7,1131,220.7z"/>
			</g>
			<g>
				<path fill="#231F20" d="M1166.1,258.5c-3.1,0-5.6-2.5-5.6-5.6c0-3.1,2.5-5.6,5.6-5.6c3.1,0,5.6,2.5,5.6,5.6
					C1171.7,256,1169.2,258.5,1166.1,258.5z M1166.1,250.7c-1.2,0-2.3,1-2.3,2.3s1,2.3,2.3,2.3c1.2,0,2.3-1,2.3-2.3
					S1167.4,250.7,1166.1,250.7z"/>
			</g>
			<g>
				<path fill="#231F20" d="M1150.4,258.5c-3.1,0-5.6-2.5-5.6-5.6c0-3.1,2.5-5.6,5.6-5.6s5.6,2.5,5.6,5.6
					C1156,256,1153.5,258.5,1150.4,258.5z M1150.4,250.7c-1.2,0-2.3,1-2.3,2.3s1,2.3,2.3,2.3c1.3,0,2.3-1,2.3-2.3
					S1151.6,250.7,1150.4,250.7z"/>
			</g>
			<g>
				<path fill="#231F20" d="M1131,254.6h-40.2c-0.9,0-1.7-0.7-1.7-1.7c0-0.9,0.7-1.7,1.7-1.7h40.2c0.9,0,1.7,0.7,1.7,1.7
					C1132.6,253.9,1131.9,254.6,1131,254.6z"/>
			</g>
			<g>
				<path fill="#231F20" d="M1166.1,292.4c-3.1,0-5.6-2.5-5.6-5.6c0-3.1,2.5-5.6,5.6-5.6c3.1,0,5.6,2.5,5.6,5.6
					C1171.7,289.9,1169.2,292.4,1166.1,292.4z M1166.1,284.6c-1.2,0-2.3,1-2.3,2.3c0,1.2,1,2.3,2.3,2.3c1.2,0,2.3-1,2.3-2.3
					C1168.4,285.6,1167.4,284.6,1166.1,284.6z"/>
			</g>
			<g>
				<path fill="#231F20" d="M1150.4,292.4c-3.1,0-5.6-2.5-5.6-5.6c0-3.1,2.5-5.6,5.6-5.6s5.6,2.5,5.6,5.6
					C1156,289.9,1153.5,292.4,1150.4,292.4z M1150.4,284.6c-1.2,0-2.3,1-2.3,2.3c0,1.2,1,2.3,2.3,2.3c1.3,0,2.3-1,2.3-2.3
					C1152.7,285.6,1151.6,284.6,1150.4,284.6z"/>
			</g>
			<g>
				<path fill="#231F20" d="M1131,288.5h-40.2c-0.9,0-1.7-0.7-1.7-1.7c0-0.9,0.7-1.7,1.7-1.7h40.2c0.9,0,1.7,0.7,1.7,1.7
					C1132.6,287.8,1131.9,288.5,1131,288.5z"/>
			</g>
		</g>
	</g>
	<g>
		<g>
			<path fill="#231F20" d="M337.4,543.4H173c-0.9,0-1.7-0.7-1.7-1.7V432.6c0-0.9,0.7-1.7,1.7-1.7h164.4c0.9,0,1.7,0.7,1.7,1.7v109.2
				C339.1,542.7,338.3,543.4,337.4,543.4z M174.7,540.1h161.1V434.2H174.7V540.1z"/>
		</g>
		<g>
			<path fill="#231F20" d="M154.2,468.6c-0.8,0-1.6-0.6-1.6-1.5c-0.1-0.9,0.6-1.7,1.5-1.8l202-19c0.9-0.1,1.7,0.6,1.8,1.5
				c0.1,0.9-0.6,1.7-1.5,1.8l-202,19C154.3,468.6,154.2,468.6,154.2,468.6z"/>
		</g>
		<g>
			<path fill="#231F20" d="M154.2,498.4c-0.8,0-1.6-0.6-1.6-1.5c-0.1-0.9,0.6-1.7,1.5-1.8l202-19c0.9-0.1,1.7,0.6,1.8,1.5
				c0.1,0.9-0.6,1.7-1.5,1.8l-202,19C154.3,498.3,154.2,498.4,154.2,498.4z"/>
		</g>
		<g>
			<path fill="#231F20" d="M154.2,528.2c-0.8,0-1.6-0.6-1.6-1.5c-0.1-0.9,0.6-1.7,1.5-1.8l202-19c0.9-0.1,1.7,0.6,1.8,1.5
				c0.1,0.9-0.6,1.7-1.5,1.8l-202,19C154.3,528.2,154.2,528.2,154.2,528.2z"/>
		</g>
		<g>
			<path fill="#231F20" d="M289.8,564.1h-69.1c-0.9,0-1.7-0.7-1.7-1.7v-20.7c0-0.9,0.7-1.7,1.7-1.7h69.1c0.9,0,1.7,0.7,1.7,1.7v20.7
				C291.4,563.4,290.7,564.1,289.8,564.1z M222.3,560.8h65.8v-17.4h-65.8V560.8z"/>
		</g>
		<g>
			<path fill="#231F20" d="M302.7,434.2H280c-0.9,0-1.7-0.7-1.7-1.7V327.4h-23.2v105.2c0,0.9-0.7,1.7-1.7,1.7h-22.7
				c-0.9,0-1.7-0.7-1.7-1.7V280.8H206v151.7c0,0.9-0.7,1.7-1.7,1.7h-16.2c-0.9,0-1.7-0.7-1.7-1.7v-24.7c-0.3-1.2-2.1-8.1-6.3-18.1
				c-0.1-0.2-0.1-0.4-0.1-0.6v-61.8h-23.2v16.2c0,0.7-0.5,1.3-1.1,1.6c-0.7,0.2-1.4,0-1.8-0.6c-3.5-4.6-6.9-8.7-10.3-12.5
				c-25.3-27.8-39.2-63.8-39.2-101.5c0-83.2,67.7-150.9,150.9-150.9c83.2,0,150.9,67.7,150.9,150.9c0,30.6-9.1,60-26.3,85.2
				c-0.4,0.6-1.2,0.9-1.9,0.6c-0.7-0.2-1.2-0.9-1.2-1.6V174.1h-23.2v174.1c0,0.3-0.1,0.7-0.3,1c-11.3,15.7-18.5,30.3-22.5,39.7
				c-0.3,0.7-1.1,1.1-1.9,1c-0.8-0.2-1.3-0.8-1.3-1.6V217.6h-23.2v215C304.4,433.5,303.6,434.2,302.7,434.2z M281.7,430.9h19.4V216
				c0-0.9,0.7-1.7,1.7-1.7h26.5c0.9,0,1.7,0.7,1.7,1.7v164.5c4.3-9,10.6-20.6,19.4-32.8V172.4c0-0.9,0.7-1.7,1.7-1.7h26.5
				c0.9,0,1.7,0.7,1.7,1.7v136.9c14.9-23.6,22.7-50.7,22.7-78.7c0-81.4-66.2-147.6-147.6-147.6c-81.4,0-147.6,66.2-147.6,147.6
				c0,36.8,13.6,72,38.3,99.2c2.5,2.8,5,5.8,7.5,8.9v-13.1c0-0.9,0.7-1.7,1.7-1.7h26.5c0.9,0,1.7,0.7,1.7,1.7v63.1
				c4.6,11.1,6.4,18.2,6.4,18.5c0,0.1,0,0.3,0,0.4v23.2h12.9V279.2c0-0.9,0.7-1.7,1.7-1.7h26.5c0.9,0,1.7,0.7,1.7,1.7v151.7h19.4
				V325.7c0-0.9,0.7-1.7,1.7-1.7H280c0.9,0,1.7,0.7,1.7,1.7V430.9z"/>
		</g>
		<g>
			<path fill="#231F20" d="M181.6,390.9c-0.7,0-1.3-0.4-1.5-1c-4.6-10.9-12.8-27.6-26.3-45.2c-0.2-0.3-0.3-0.6-0.3-1v-17.9
				c0-0.9,0.7-1.7,1.7-1.7h26.5c0.9,0,1.7,0.7,1.7,1.7v63.5c0,0.8-0.6,1.5-1.3,1.6C181.9,390.8,181.7,390.9,181.6,390.9z
				 M156.8,343.1c10.8,14.2,18.3,27.8,23.2,38.3v-54h-23.2V343.1z"/>
		</g>
		<g>
			<path fill="#231F20" d="M230.8,434.2h-26.5c-0.9,0-1.7-0.7-1.7-1.7V279.2c0-0.9,0.7-1.7,1.7-1.7h26.5c0.9,0,1.7,0.7,1.7,1.7
				v153.4C232.5,433.5,231.7,434.2,230.8,434.2z M206,430.9h23.2V280.8H206V430.9z"/>
		</g>
		<g>
			<path fill="#231F20" d="M280,434.2h-26.5c-0.9,0-1.7-0.7-1.7-1.7V325.7c0-0.9,0.7-1.7,1.7-1.7H280c0.9,0,1.7,0.7,1.7,1.7v106.8
				C281.7,433.5,280.9,434.2,280,434.2z M255.2,430.9h23.2V327.4h-23.2V430.9z"/>
		</g>
		<g>
			<path fill="#231F20" d="M322.3,434.2h-19.6c-0.9,0-1.7-0.7-1.7-1.7V216c0-0.9,0.7-1.7,1.7-1.7h26.5c0.9,0,1.7,0.7,1.7,1.7v172.2
				c0,0.2,0,0.4-0.1,0.6c-4.5,10.5-6.4,17.7-6.8,19.1v24.7C324,433.5,323.2,434.2,322.3,434.2z M304.4,430.9h16.3v-23.3
				c0-0.1,0-0.3,0.1-0.4c0.2-0.8,2.1-8.3,6.8-19.4V217.6h-23.2V430.9z"/>
		</g>
		<g>
			<path fill="#231F20" d="M351.9,349.8c-0.2,0-0.3,0-0.5-0.1c-0.7-0.2-1.1-0.9-1.1-1.6V172.4c0-0.9,0.7-1.7,1.7-1.7h26.5
				c0.9,0,1.7,0.7,1.7,1.7v142.5c0,0.3-0.1,0.7-0.3,0.9c-4,5.8-8.3,11.2-12.9,16.3c-4.7,5.2-9.1,10.8-13.6,17
				C352.9,349.6,352.4,349.8,351.9,349.8z M353.6,174.1v169c3.6-4.7,7.1-9.1,10.9-13.2c4.4-4.8,8.5-10.1,12.3-15.5V174.1H353.6z"/>
		</g>
		<g>
			<path fill="#231F20" d="M154.2,276.7c-0.5,0-0.9-0.2-1.3-0.6c-0.6-0.7-0.5-1.7,0.2-2.3l63.4-52.9c0.3-0.2,0.7-0.4,1.1-0.4h48.3
				l61.9-86.4c0.5-0.7,1.6-0.9,2.3-0.4c0.7,0.5,0.9,1.6,0.4,2.3l-62.4,87.1c-0.3,0.4-0.8,0.7-1.3,0.7h-48.6l-62.9,52.5
				C154.9,276.6,154.6,276.7,154.2,276.7z"/>
		</g>
		<g>
			<path fill="#231F20" d="M332.9,161.7c-0.8,0-1.5-0.6-1.6-1.5l-2.7-23.3l-23.5,2.7c-0.9,0.1-1.7-0.5-1.8-1.5
				c-0.1-0.9,0.5-1.7,1.5-1.8l25.2-2.9c0.9-0.1,1.7,0.5,1.8,1.5l2.9,25c0.1,0.9-0.5,1.7-1.5,1.8C333,161.7,333,161.7,332.9,161.7z"
				/>
		</g>
	</g>
	<g>
		<g>
			<g>
				<g>
					<path fill="#231F20" d="M326.8,678.6H184.6c-0.9,0-1.7-0.7-1.7-1.7v-44.8c0-0.9,0.7-1.7,1.7-1.7h142.2c0.9,0,1.7,0.7,1.7,1.7
						V677C328.4,677.9,327.7,678.6,326.8,678.6z M186.3,675.3h138.8v-41.5H186.3V675.3z"/>
				</g>
				<g>
					<path fill="#231F20" d="M326.8,771.6H184.6c-0.9,0-1.7-0.7-1.7-1.7v-44.8c0-0.9,0.7-1.7,1.7-1.7h142.2c0.9,0,1.7,0.7,1.7,1.7
						v44.8C328.4,770.8,327.7,771.6,326.8,771.6z M186.3,768.3h138.8v-41.5H186.3V768.3z"/>
				</g>
				<g>
					<path fill="#231F20" d="M326.8,726.8H184.6c-0.9,0-1.7-0.7-1.7-1.7V677c0-0.9,0.7-1.7,1.7-1.7h142.2c0.9,0,1.7,0.7,1.7,1.7
						v48.1C328.4,726,327.7,726.8,326.8,726.8z M186.3,723.4h138.8v-44.8H186.3V723.4z"/>
				</g>
			</g>
			<g>
				<path fill="#231F20" d="M303.9,661.6c-3.9,0-7-3.2-7-7c0-3.9,3.1-7,7-7c3.9,0,7,3.2,7,7C310.9,658.4,307.7,661.6,303.9,661.6z
					 M303.9,650.8c-2,0-3.7,1.7-3.7,3.7c0,2,1.7,3.7,3.7,3.7c2,0,3.7-1.7,3.7-3.7C307.6,652.5,305.9,650.8,303.9,650.8z"/>
			</g>
			<g>
				<path fill="#231F20" d="M282.3,661.6c-3.9,0-7-3.2-7-7c0-3.9,3.2-7,7-7c3.9,0,7,3.2,7,7C289.3,658.4,286.2,661.6,282.3,661.6z
					 M282.3,650.8c-2,0-3.7,1.7-3.7,3.7c0,2,1.7,3.7,3.7,3.7c2,0,3.7-1.7,3.7-3.7C286,652.5,284.3,650.8,282.3,650.8z"/>
			</g>
			<g>
				<path fill="#231F20" d="M255.7,656.2h-55.1c-0.9,0-1.7-0.7-1.7-1.7s0.7-1.7,1.7-1.7h55.1c0.9,0,1.7,0.7,1.7,1.7
					S256.6,656.2,255.7,656.2z"/>
			</g>
			<g>
				<path fill="#231F20" d="M303.9,708.1c-3.9,0-7-3.2-7-7s3.1-7,7-7c3.9,0,7,3.2,7,7S307.7,708.1,303.9,708.1z M303.9,697.3
					c-2,0-3.7,1.7-3.7,3.7s1.7,3.7,3.7,3.7c2,0,3.7-1.7,3.7-3.7S305.9,697.3,303.9,697.3z"/>
			</g>
			<g>
				<path fill="#231F20" d="M282.3,708.1c-3.9,0-7-3.2-7-7s3.2-7,7-7c3.9,0,7,3.2,7,7S286.2,708.1,282.3,708.1z M282.3,697.3
					c-2,0-3.7,1.7-3.7,3.7s1.7,3.7,3.7,3.7c2,0,3.7-1.7,3.7-3.7S284.3,697.3,282.3,697.3z"/>
			</g>
			<g>
				<path fill="#231F20" d="M255.7,702.7h-55.1c-0.9,0-1.7-0.7-1.7-1.7c0-0.9,0.7-1.7,1.7-1.7h55.1c0.9,0,1.7,0.7,1.7,1.7
					C257.4,701.9,256.6,702.7,255.7,702.7z"/>
			</g>
			<g>
				<path fill="#231F20" d="M303.9,754.5c-3.9,0-7-3.2-7-7c0-3.9,3.1-7,7-7c3.9,0,7,3.2,7,7C310.9,751.4,307.7,754.5,303.9,754.5z
					 M303.9,743.8c-2,0-3.7,1.7-3.7,3.7c0,2,1.7,3.7,3.7,3.7c2,0,3.7-1.7,3.7-3.7C307.6,745.5,305.9,743.8,303.9,743.8z"/>
			</g>
			<g>
				<path fill="#231F20" d="M282.3,754.5c-3.9,0-7-3.2-7-7c0-3.9,3.2-7,7-7c3.9,0,7,3.2,7,7C289.3,751.4,286.2,754.5,282.3,754.5z
					 M282.3,743.8c-2,0-3.7,1.7-3.7,3.7c0,2,1.7,3.7,3.7,3.7c2,0,3.7-1.7,3.7-3.7C286,745.5,284.3,743.8,282.3,743.8z"/>
			</g>
			<g>
				<path fill="#231F20" d="M255.7,749.2h-55.1c-0.9,0-1.7-0.7-1.7-1.7c0-0.9,0.7-1.7,1.7-1.7h55.1c0.9,0,1.7,0.7,1.7,1.7
					C257.4,748.4,256.6,749.2,255.7,749.2z"/>
			</g>
		</g>
		<g>
			<g>
				<g>
					<path fill="#231F20" d="M326.8,816.4H184.6c-0.9,0-1.7-0.7-1.7-1.7v-44.8c0-0.9,0.7-1.7,1.7-1.7h142.2c0.9,0,1.7,0.7,1.7,1.7
						v44.8C328.4,815.6,327.7,816.4,326.8,816.4z M186.3,813.1h138.8v-41.5H186.3V813.1z"/>
				</g>
				<g>
					<path fill="#231F20" d="M326.8,909.3H184.6c-0.9,0-1.7-0.7-1.7-1.7v-44.8c0-0.9,0.7-1.7,1.7-1.7h142.2c0.9,0,1.7,0.7,1.7,1.7
						v44.8C328.4,908.6,327.7,909.3,326.8,909.3z M186.3,906h138.8v-41.5H186.3V906z"/>
				</g>
				<g>
					<path fill="#231F20" d="M326.8,864.5H184.6c-0.9,0-1.7-0.7-1.7-1.7v-48.1c0-0.9,0.7-1.7,1.7-1.7h142.2c0.9,0,1.7,0.7,1.7,1.7
						v48.1C328.4,863.8,327.7,864.5,326.8,864.5z M186.3,861.2h138.8v-44.8H186.3V861.2z"/>
				</g>
			</g>
			<g>
				<path fill="#231F20" d="M303.9,799.3c-3.9,0-7-3.2-7-7c0-3.9,3.1-7,7-7c3.9,0,7,3.2,7,7C310.9,796.2,307.7,799.3,303.9,799.3z
					 M303.9,788.6c-2,0-3.7,1.7-3.7,3.7c0,2,1.7,3.7,3.7,3.7c2,0,3.7-1.7,3.7-3.7C307.6,790.3,305.9,788.6,303.9,788.6z"/>
			</g>
			<g>
				<path fill="#231F20" d="M282.3,799.3c-3.9,0-7-3.2-7-7c0-3.9,3.2-7,7-7c3.9,0,7,3.2,7,7C289.3,796.2,286.2,799.3,282.3,799.3z
					 M282.3,788.6c-2,0-3.7,1.7-3.7,3.7c0,2,1.7,3.7,3.7,3.7c2,0,3.7-1.7,3.7-3.7C286,790.3,284.3,788.6,282.3,788.6z"/>
			</g>
			<g>
				<path fill="#231F20" d="M255.7,794h-55.1c-0.9,0-1.7-0.7-1.7-1.7s0.7-1.7,1.7-1.7h55.1c0.9,0,1.7,0.7,1.7,1.7
					S256.6,794,255.7,794z"/>
			</g>
			<g>
				<path fill="#231F20" d="M303.9,845.8c-3.9,0-7-3.2-7-7c0-3.9,3.1-7,7-7c3.9,0,7,3.2,7,7C310.9,842.7,307.7,845.8,303.9,845.8z
					 M303.9,835.1c-2,0-3.7,1.7-3.7,3.7c0,2,1.7,3.7,3.7,3.7c2,0,3.7-1.7,3.7-3.7C307.6,836.7,305.9,835.1,303.9,835.1z"/>
			</g>
			<g>
				<path fill="#231F20" d="M282.3,845.8c-3.9,0-7-3.2-7-7c0-3.9,3.2-7,7-7c3.9,0,7,3.2,7,7C289.3,842.7,286.2,845.8,282.3,845.8z
					 M282.3,835.1c-2,0-3.7,1.7-3.7,3.7c0,2,1.7,3.7,3.7,3.7c2,0,3.7-1.7,3.7-3.7C286,836.7,284.3,835.1,282.3,835.1z"/>
			</g>
			<g>
				<path fill="#231F20" d="M255.7,840.5h-55.1c-0.9,0-1.7-0.7-1.7-1.7c0-0.9,0.7-1.7,1.7-1.7h55.1c0.9,0,1.7,0.7,1.7,1.7
					C257.4,839.7,256.6,840.5,255.7,840.5z"/>
			</g>
			<g>
				<path fill="#231F20" d="M303.9,892.3c-3.9,0-7-3.2-7-7c0-3.9,3.1-7,7-7c3.9,0,7,3.2,7,7C310.9,889.1,307.7,892.3,303.9,892.3z
					 M303.9,881.6c-2,0-3.7,1.7-3.7,3.7c0,2,1.7,3.7,3.7,3.7c2,0,3.7-1.7,3.7-3.7C307.6,883.2,305.9,881.6,303.9,881.6z"/>
			</g>
			<g>
				<path fill="#231F20" d="M282.3,892.3c-3.9,0-7-3.2-7-7c0-3.9,3.2-7,7-7c3.9,0,7,3.2,7,7C289.3,889.1,286.2,892.3,282.3,892.3z
					 M282.3,881.6c-2,0-3.7,1.7-3.7,3.7c0,2,1.7,3.7,3.7,3.7c2,0,3.7-1.7,3.7-3.7C286,883.2,284.3,881.6,282.3,881.6z"/>
			</g>
			<g>
				<path fill="#231F20" d="M255.7,886.9h-55.1c-0.9,0-1.7-0.7-1.7-1.7s0.7-1.7,1.7-1.7h55.1c0.9,0,1.7,0.7,1.7,1.7
					S256.6,886.9,255.7,886.9z"/>
			</g>
		</g>
		<g>
			<g>
				<path d="M183.1,880c-4.8,0-9.7-0.3-14.8-1c-0.7-0.1-1.3-0.7-1.4-1.4l-3.7-30c-3.3-0.8-6.5-1.9-9.6-3.1l-20.7,22.1
					c-0.5,0.6-1.3,0.7-2,0.3c-8.6-4.7-16.7-10.5-23.9-17.4c-0.5-0.5-0.7-1.3-0.3-2l14.6-26.5c-2.2-2.6-4.2-5.4-6-8.2l-29.7,5.8
					c-0.7,0.1-1.5-0.2-1.8-0.9c-4.3-8.8-7.3-18.3-9.1-28.1c-0.1-0.7,0.2-1.5,0.9-1.8l27.4-12.8c-0.1-1.9-0.2-3.5-0.2-5.1
					c0-1.6,0.1-3.3,0.2-5.1L75.7,752c-0.7-0.3-1.1-1.1-0.9-1.8c1.8-9.8,4.8-19.3,9.1-28.1c0.3-0.7,1.1-1.1,1.8-0.9l29.7,5.8
					c1.8-2.8,3.8-5.6,6-8.2l-14.6-26.5c-0.4-0.7-0.2-1.5,0.3-2c7.2-6.9,15.2-12.7,23.9-17.4c0.7-0.4,1.5-0.2,2,0.3l20.7,22.1
					c3.1-1.2,6.3-2.3,9.6-3.1l3.7-30c0.1-0.7,0.7-1.3,1.4-1.4c5-0.7,10-1,14.8-1l1.6,0c0.9,0,1.6,0.8,1.6,1.7v58.2
					c0,0.4-0.2,0.9-0.5,1.2c-0.3,0.3-0.8,0.5-1.2,0.5l-0.4,0c-0.3,0-0.7,0-1.1,0c-26.8,0-48.6,21.8-48.6,48.6s21.8,48.6,48.6,48.6
					c0.4,0,0.9,0,1.3,0c0.4,0,1,0.1,1.3,0.5c0.3,0.3,0.6,0.7,0.6,1.2v58.2c0,0.9-0.7,1.6-1.6,1.7L183.1,880z M170,875.9
					c4.4,0.5,8.8,0.8,12.9,0.8v-54.9c-28.5-0.1-51.7-23.3-51.7-51.9s23.2-51.8,51.7-51.9v-54.9c-4.2,0-8.5,0.3-12.9,0.8l-3.7,29.9
					c-0.1,0.7-0.6,1.2-1.3,1.4c-3.9,0.9-7.7,2.2-11.3,3.7c-0.6,0.3-1.4,0.1-1.8-0.4l-20.6-22c-7.6,4.2-14.7,9.4-21.1,15.4l14.6,26.3
					c0.3,0.6,0.3,1.4-0.2,1.9c-2.6,3-5,6.3-7,9.6c-0.4,0.6-1,0.9-1.7,0.8l-29.6-5.7c-3.7,7.8-6.4,16.2-8,24.9l27.3,12.8
					c0.6,0.3,1,0.9,1,1.6c-0.2,2.2-0.3,4.1-0.3,5.9c0,1.8,0.1,3.7,0.3,5.9c0.1,0.7-0.3,1.3-1,1.6l-27.3,12.8c1.7,8.7,4.4,17,8,24.9
					l29.6-5.7c0.7-0.1,1.4,0.2,1.7,0.8c2,3.3,4.4,6.5,7,9.6c0.4,0.5,0.5,1.3,0.2,1.9L110.2,848c6.4,6,13.5,11.2,21.1,15.4l20.6-22
					c0.5-0.5,1.2-0.7,1.8-0.4c3.6,1.5,7.5,2.7,11.3,3.7c0.7,0.2,1.2,0.7,1.3,1.4L170,875.9z"/>
			</g>
			<g>
				<path d="M183.1,821.8c-28.6,0-51.9-23.3-51.9-51.9c0-28.6,23.3-51.9,51.9-51.9c0.4,0,0.8,0,1.2,0l0.4,0c0.9,0,1.6,0.8,1.6,1.7
					v100.4c0,0.9-0.7,1.6-1.6,1.7C184,821.8,183.6,821.8,183.1,821.8z M183,721.3c-26.7,0.1-48.4,21.8-48.4,48.6
					c0,26.7,21.7,48.5,48.4,48.6V721.3z"/>
			</g>
		</g>
		<g>
			<path d="M401.5,759.3c-0.3,0-0.5-0.1-0.7-0.2c-0.6-0.3-0.9-0.9-0.9-1.5v-14.5h-73c-0.9,0-1.7-0.7-1.7-1.7v-60
				c0-0.9,0.7-1.7,1.7-1.7h73v-14.5c0-0.6,0.4-1.2,0.9-1.5c0.6-0.3,1.2-0.2,1.7,0.2l60.6,46.1c0.4,0.3,0.7,0.8,0.7,1.3
				c0,0.5-0.2,1-0.7,1.3L402.5,759C402.2,759.2,401.8,759.3,401.5,759.3z M328.4,739.9h73c0.9,0,1.7,0.7,1.7,1.7v12.8l56.2-42.8
				l-56.2-42.8v12.8c0,0.9-0.7,1.7-1.7,1.7h-73V739.9z"/>
		</g>
		<g>
			<path d="M471.6,876.1c-0.3,0-0.5-0.1-0.7-0.2c-0.6-0.3-0.9-0.9-0.9-1.5V860H326.8c-0.9,0-1.7-0.7-1.7-1.7v-60
				c0-0.9,0.7-1.7,1.7-1.7h143.1v-14.5c0-0.6,0.4-1.2,0.9-1.5c0.6-0.3,1.2-0.2,1.7,0.2l60.6,46.1c0.4,0.3,0.7,0.8,0.7,1.3
				c0,0.5-0.2,1-0.7,1.3l-60.6,46.1C472.3,876,471.9,876.1,471.6,876.1z M328.4,856.7h143.1c0.9,0,1.7,0.7,1.7,1.7v12.8l56.2-42.8
				l-56.2-42.8v12.8c0,0.9-0.7,1.7-1.7,1.7H328.4V856.7z"/>
		</g>
		<g>
			<path d="M373.3,843h-46.5c-0.9,0-1.7-0.7-1.7-1.7s0.7-1.7,1.7-1.7h46.5c0.9,0,1.7,0.7,1.7,1.7S374.2,843,373.3,843z"/>
		</g>
		<g>
			<path d="M373.3,726.8h-46.5c-0.9,0-1.7-0.7-1.7-1.7s0.7-1.7,1.7-1.7h46.5c0.9,0,1.7,0.7,1.7,1.7S374.2,726.8,373.3,726.8z"/>
		</g>
	</g>
	<g>
		<g>
			<ellipse fill="#FFFFFF" cx="1140.9" cy="567.2" rx="112.6" ry="22.9"/>
			<path fill="#231F20" d="M1140.9,591.7c-55.4,0-114.3-8.6-114.3-24.6c0-16,58.9-24.6,114.3-24.6c55.4,0,114.3,8.6,114.3,24.6
				C1255.2,583.1,1196.3,591.7,1140.9,591.7z M1140.9,545.9c-65.4,0-111,11.2-111,21.3c0,10.1,45.6,21.3,111,21.3
				c65.4,0,111-11.2,111-21.3C1251.9,557.1,1206.3,545.9,1140.9,545.9z"/>
		</g>
		<g>
			<path fill="#FFFFFF" d="M1043.4,642.1c-9.6,3.4-15.1,7.3-15.1,11.5c0,12.7,50.4,22.9,112.6,22.9s112.6-10.3,112.6-22.9
				c0-4.2-5.5-8.1-15.1-11.5c-19.5,6.8-55.8,11.5-97.5,11.5C1099.3,653.5,1062.9,648.9,1043.4,642.1z"/>
			<path fill="#231F20" d="M1140.9,678.1c-55.4,0-114.3-8.6-114.3-24.6c0-4.9,5.5-9.2,16.2-13c0.4-0.1,0.7-0.1,1.1,0
				c19.9,7,57.1,11.4,96.9,11.4s77-4.4,96.9-11.4c0.4-0.1,0.7-0.1,1.1,0c10.8,3.8,16.2,8.2,16.2,13
				C1255.2,669.5,1196.3,678.1,1140.9,678.1z M1043.5,643.8c-8.6,3.1-13.5,6.6-13.5,9.7c0,10.1,45.6,21.3,111,21.3
				c65.4,0,111-11.2,111-21.3c0-3.1-4.9-6.6-13.5-9.7c-20.4,7-57.6,11.4-97.5,11.4S1063.9,650.8,1043.5,643.8z"/>
		</g>
		<g>
			<path fill="#FFFFFF" d="M1140.9,590.1c-62.2,0-112.6-10.3-112.6-22.9v63.4c0,4.2,5.5,8.1,15.1,11.5c19.5,6.8,55.8,11.5,97.5,11.5
				c41.7,0,78-4.6,97.5-11.5c9.6-3.4,15.1-7.3,15.1-11.5v-63.4C1253.5,579.8,1203.1,590.1,1140.9,590.1z"/>
			<path fill="#231F20" d="M1140.9,655.2c-40.2,0-77.8-4.4-98-11.5c-10.8-3.8-16.2-8.2-16.2-13v-63.4c0-0.9,0.7-1.7,1.7-1.7
				s1.7,0.7,1.7,1.7c0,10.1,45.6,21.3,111,21.3c65.4,0,111-11.2,111-21.3c0-0.9,0.7-1.7,1.7-1.7s1.7,0.7,1.7,1.7v63.4
				c0,4.9-5.5,9.2-16.2,13C1218.7,650.8,1181.1,655.2,1140.9,655.2z M1030,573.5v57.2c0,3.2,5.1,6.8,14,9.9
				c19.9,7,57.1,11.4,96.9,11.4s77-4.4,96.9-11.4c8.9-3.1,14-6.7,14-9.9v-57.2c-13.2,11.9-63.3,18.3-111,18.3
				C1093.3,591.7,1043.1,585.4,1030,573.5z"/>
		</g>
		<g>
			<path fill="#FFFFFF" d="M1043.4,728.5c-9.6,3.4-15.1,7.3-15.1,11.5c0,12.7,50.4,22.9,112.6,22.9s112.6-10.3,112.6-22.9
				c0-4.2-5.5-8.1-15.1-11.5c-19.5,6.8-55.8,11.5-97.5,11.5C1099.3,739.9,1062.9,735.3,1043.4,728.5z"/>
			<path fill="#231F20" d="M1140.9,764.5c-55.4,0-114.3-8.6-114.3-24.6c0-4.9,5.5-9.2,16.2-13c0.4-0.1,0.7-0.1,1.1,0
				c19.9,7,57.1,11.4,96.9,11.4c39.9,0,77-4.4,96.9-11.4c0.4-0.1,0.7-0.1,1.1,0c10.8,3.8,16.2,8.2,16.2,13
				C1255.2,755.9,1196.3,764.5,1140.9,764.5z M1043.5,730.2c-8.6,3.1-13.5,6.6-13.5,9.7c0,10.1,45.6,21.3,111,21.3
				c65.4,0,111-11.2,111-21.3c0-3.1-4.9-6.6-13.5-9.7c-20.4,7-57.6,11.4-97.5,11.4C1101.1,741.6,1063.8,737.2,1043.5,730.2z"/>
		</g>
		<g>
			<path fill="#FFFFFF" d="M1140.9,676.5c-62.2,0-112.6-10.3-112.6-22.9V717c0,4.2,5.5,8.1,15.1,11.5c19.5,6.8,55.8,11.5,97.5,11.5
				c41.7,0,78-4.6,97.5-11.5c9.6-3.4,15.1-7.3,15.1-11.5v-63.4C1253.5,666.2,1203.1,676.5,1140.9,676.5z"/>
			<path fill="#231F20" d="M1140.9,741.6c-40.2,0-77.8-4.4-98-11.5c-10.8-3.8-16.2-8.2-16.2-13v-63.4c0-0.9,0.7-1.7,1.7-1.7
				s1.7,0.7,1.7,1.7c0,10.1,45.6,21.3,111,21.3c65.4,0,111-11.2,111-21.3c0-0.9,0.7-1.7,1.7-1.7s1.7,0.7,1.7,1.7V717
				c0,4.9-5.5,9.2-16.2,13C1218.7,737.2,1181.1,741.6,1140.9,741.6z M1030,659.8V717c0,3.2,5.1,6.8,14,9.9
				c19.9,7,57.1,11.4,96.9,11.4c39.9,0,77-4.4,96.9-11.4c8.9-3.1,14-6.7,14-9.9v-57.2c-13.2,11.9-63.3,18.3-111,18.3
				C1093.3,678.1,1043.1,671.8,1030,659.8z"/>
		</g>
		<g>
			<path fill="#FFFFFF" d="M1140.9,762.9c-62.2,0-112.6-10.3-112.6-22.9v63.4c0,12.7,50.4,22.9,112.6,22.9s112.6-10.3,112.6-22.9
				v-63.4C1253.5,752.6,1203.1,762.9,1140.9,762.9z"/>
			<path fill="#231F20" d="M1140.9,828c-55.4,0-114.3-8.6-114.3-24.6v-63.4c0-0.9,0.7-1.7,1.7-1.7s1.7,0.7,1.7,1.7
				c0,10.1,45.6,21.3,111,21.3c65.4,0,111-11.2,111-21.3c0-0.9,0.7-1.7,1.7-1.7s1.7,0.7,1.7,1.7v63.4
				C1255.2,819.3,1196.3,828,1140.9,828z M1030,746.2v57.2c0,10.1,45.6,21.3,111,21.3c65.4,0,111-11.2,111-21.3v-57.2
				c-13.2,11.9-63.3,18.3-111,18.3C1093.3,764.5,1043.1,758.2,1030,746.2z"/>
		</g>
	</g>
	<g>
		<g>
			<path fill="#FFFFFF" d="M979.9,807c0-20.4,16.6-37,37-37v-57.8h-23.3l-35-25.1l-31.9,23.4l3,102.6c0,0-0.5,92.9,87.2,92.9v-62
				C996.5,844,979.9,827.4,979.9,807z"/>
			<path d="M1016.9,907.6c-25.5,0-46.1-7.7-61.3-23c-27.5-27.7-27.6-71.1-27.6-71.6l-3-102.5c0-0.5,0.2-1.1,0.7-1.4l31.9-23.4
				c0.6-0.4,1.4-0.4,1.9,0l34.6,24.8h22.8c0.9,0,1.7,0.7,1.7,1.7v57.8c0,0.9-0.7,1.7-1.7,1.7c-19.5,0-35.3,15.9-35.3,35.3
				c0,19.5,15.9,35.4,35.3,35.4c0.9,0,1.7,0.7,1.7,1.7v62C1018.6,906.9,1017.8,907.6,1016.9,907.6z M928.4,711.3l3,101.7
				c0,0.5,0.1,42.6,26.6,69.3c14.2,14.3,33.5,21.7,57.2,22v-58.7c-20.6-0.9-37-17.9-37-38.6c0-20.8,16.5-37.8,37-38.6v-54.5h-21.7
				c-0.3,0-0.7-0.1-1-0.3l-34-24.4L928.4,711.3z"/>
		</g>
		<g>
			<path fill="#FFFFFF" d="M1107.1,710.4l-31.8-23.4l-35,25.1h-23.3l0,0v57.8c20.4,0,37,16.6,37,37c0,20.4-16.6,37-37,37v62l0,0
				c87.7,0,87.2-92.9,87.2-92.9L1107.1,710.4z"/>
			<path d="M1016.9,907.6c-0.9,0-1.7-0.7-1.7-1.7v-62c0-0.9,0.7-1.7,1.7-1.7c19.5,0,35.3-15.9,35.3-35.4c0-19.5-15.9-35.3-35.3-35.3
				c-0.9,0-1.7-0.7-1.7-1.7v-57.8c0-0.9,0.7-1.7,1.7-1.7h22.8l34.6-24.8c0.6-0.4,1.4-0.4,1.9,0l31.8,23.4c0.4,0.3,0.7,0.8,0.7,1.4
				l-3,102.6c0,0.4-0.1,43.8-27.6,71.5C1063,899.9,1042.4,907.6,1016.9,907.6z M1018.6,845.6v58.7c23.8-0.3,43-7.7,57.3-22
				c26.6-26.7,26.6-68.8,26.6-69.2l3-101.8l-30.2-22.2l-34,24.4c-0.3,0.2-0.6,0.3-1,0.3h-21.7v54.5c20.6,0.9,37,17.9,37,38.6
				C1055.6,827.7,1039.1,844.7,1018.6,845.6z"/>
		</g>
		<g>
			<path fill="#FFFFFF" d="M979.9,807c0,20.4,16.6,37,37,37c20.4,0,37-16.6,37-37c0-20.4-16.6-37-37-37
				C996.5,769.9,979.9,786.5,979.9,807z"/>
			<path d="M1016.9,845.6c-21.3,0-38.7-17.3-38.7-38.7c0-21.3,17.3-38.7,38.7-38.7c21.3,0,38.7,17.3,38.7,38.7
				C1055.6,828.3,1038.2,845.6,1016.9,845.6z M1016.9,771.6c-19.5,0-35.3,15.9-35.3,35.3c0,19.5,15.9,35.4,35.3,35.4
				c19.5,0,35.3-15.9,35.3-35.4C1052.2,787.5,1036.4,771.6,1016.9,771.6z"/>
		</g>
	</g>
	<g>
		<path fill="#FFFFFF" d="M868.9,826.3c0,22-17.8,39.8-39.8,39.8H622.5c-22,0-39.8-17.8-39.8-39.8l0,0c0-22,17.8-39.8,39.8-39.8
			h206.7C851.1,786.5,868.9,804.3,868.9,826.3L868.9,826.3z"/>
		<path d="M829.1,867.7H622.5c-22.8,0-41.4-18.6-41.4-41.4c0-22.8,18.6-41.4,41.4-41.4h206.7c22.8,0,41.4,18.6,41.4,41.4
			C870.6,849.2,852,867.7,829.1,867.7z M622.5,788.2c-21,0-38.1,17.1-38.1,38.1c0,21,17.1,38.1,38.1,38.1h206.7
			c21,0,38.1-17.1,38.1-38.1c0-21-17.1-38.1-38.1-38.1H622.5z"/>
	</g>
	<g>
		<path fill="#FFFFFF" d="M937.5,147.6c0,30.4-24.7,55.1-55.1,55.1H510.9c-30.4,0-55.1-24.7-55.1-55.1l0,0
			c0-30.4,24.7-55.1,55.1-55.1h371.5C912.8,92.5,937.5,117.2,937.5,147.6L937.5,147.6z"/>
		<path d="M882.4,204.3H510.9c-31.3,0-56.7-25.4-56.7-56.7c0-31.3,25.4-56.7,56.7-56.7h371.5c31.3,0,56.7,25.4,56.7,56.7
			C939.1,178.9,913.7,204.3,882.4,204.3z M510.9,94.2c-29.4,0-53.4,24-53.4,53.4c0,29.4,24,53.4,53.4,53.4h371.5
			c29.4,0,53.4-24,53.4-53.4c0-29.4-24-53.4-53.4-53.4H510.9z"/>
	</g>
	<g>
		<g>
			<path fill="#FFFFFF" d="M642.7,820.4c0,8.3-6.7,15-15,15l0,0c-8.3,0-15-6.7-15-15l0,0c0-8.3,6.7-15,15-15l0,0
				C636,805.4,642.7,812.1,642.7,820.4L642.7,820.4z"/>
			<path d="M627.7,837.1c-9.2,0-16.7-7.5-16.7-16.7c0-9.2,7.5-16.7,16.7-16.7c9.2,0,16.7,7.5,16.7,16.7
				C644.4,829.6,636.9,837.1,627.7,837.1z M627.7,807.1c-7.4,0-13.4,6-13.4,13.4c0,7.4,6,13.4,13.4,13.4c7.4,0,13.4-6,13.4-13.4
				C641.1,813.1,635.1,807.1,627.7,807.1z"/>
		</g>
		<g>
			<path d="M602.2,848.8c-0.4,0-0.8-0.2-1.2-0.5c-0.6-0.6-0.6-1.7,0-2.3l15.6-15.6c0.6-0.6,1.7-0.6,2.3,0s0.6,1.7,0,2.3l-15.6,15.6
				C603,848.7,602.6,848.8,602.2,848.8z"/>
		</g>
	</g>
	<g>
		<g>
			<path d="M521.6,125.6c-3.1-1.5-8.1-2.3-15-2.3h-11v46.8h11c6.6,0,11.7-0.8,15-2.3c6.9-3.3,10.4-10.4,10.4-21.1
				C532,136.2,528.5,129.1,521.6,125.6z M507.1,167.4h-8.5v-41.3h8.5c1.9,0,3.5,0,4.9,0.1c1.4,0.1,2.6,0.2,3.5,0.4
				c3.1,0.6,5.6,1.7,7.4,3.4c3.9,3.6,5.9,9.2,5.9,16.8c0,9.3-2.8,15.5-8.3,18.4C517.7,166.7,513.2,167.4,507.1,167.4z"/>
		</g>
		<g>
			<path d="M554.5,123.4h-3l-18,46.8h3l6-15.7h20.9l5.8,15.4l0.1,0.3h3l-17.7-46.5L554.5,123.4z M562.2,151.7h-18.7l9.4-24.3
				L562.2,151.7z"/>
		</g>
		<g>
			<polygon points="601,123.4 569.4,123.4 569.4,126.2 583.7,126.2 583.7,170.2 586.7,170.2 586.7,126.2 601,126.2 			"/>
		</g>
		<g>
			<path d="M619.1,123.4h-3l-18,46.8h3l6-15.7H628l5.8,15.4l0.1,0.3h3l-17.7-46.5L619.1,123.4z M626.9,151.7h-18.7l9.4-24.3
				L626.9,151.7z"/>
		</g>
		<g>
			<path d="M681.5,148.3c-1.9-1.2-5.2-2.4-10.2-3.7c-0.3-0.1-0.5-0.2-0.6-0.2c-0.1,0-0.2,0-0.3-0.1c-4.6-1.2-7.6-2.4-8.9-3.6
				c-1.8-1.7-2.7-3.6-2.7-5.9c0-3.2,1.1-5.6,3.2-7.4c2-1.6,4.7-2.5,8-2.5c3.5,0,6.5,1,8.7,2.9c2.3,2,3.5,4.8,3.6,8.4l0,0.4h2.9
				l0-0.4c-0.2-4.4-1.7-7.9-4.5-10.3c-2.7-2.4-6.2-3.6-10.6-3.6c-4,0-7.4,1-10,3.1c-2.8,2.2-4.3,5.3-4.3,9.3c0,3.2,1.1,5.9,3.4,7.9
				c1.5,1.3,4.8,2.7,10.2,4.3c0.6,0.1,0.7,0.2,0.7,0.2l0.2,0.1c4.7,1.3,7.7,2.4,9.1,3.3c2.8,1.7,4.1,4.2,4.1,7.6
				c0,3.3-1.3,5.8-3.9,7.7c-2.3,1.7-5.2,2.6-8.7,2.6c-4,0-7.1-1.2-9.4-3.4c-2.3-2.3-3.6-5.4-3.8-9.3l0-0.4h-2.9l0,0.4
				c0.3,4.8,1.9,8.5,4.7,11.2c2.8,2.8,6.6,4.1,11.4,4.1c4.5,0,8.2-1.1,11-3.3c3.1-2.5,4.7-5.9,4.7-10.3
				C686.6,153.6,684.9,150.5,681.5,148.3z"/>
		</g>
		<g>
			<path d="M726.3,157.6c-0.7,2.9-2.1,5.3-4.3,7.2c-2.8,2.4-6.4,3.6-10.9,3.6c-5.5,0-9.8-2.3-12.6-6.8c-2.4-3.8-3.6-8.8-3.6-14.7
				c0-5.9,1.2-11,3.7-14.9c2.9-4.6,7.2-6.9,12.8-6.9c7.6,0,12.3,3,14.4,9.2l0.2,0.5l2.7-1.4l-0.1-0.3c-1-2.7-2.6-4.9-4.9-6.8
				c-3.2-2.6-7.2-3.9-11.8-3.9c-6.8,0-12,2.5-15.4,7.5c-3,4.4-4.5,10.1-4.5,17.1c0,7,1.5,12.6,4.4,16.8c3.4,4.9,8.5,7.4,15.2,7.4
				c5.2,0,9.5-1.4,12.7-4.3c2.4-2.1,4-4.8,4.9-8l0.1-0.3l-2.6-1.4L726.3,157.6z"/>
		</g>
		<g>
			<rect x="737.7" y="123.4" width="2.9" height="46.8"/>
		</g>
		<g>
			<polygon points="753.6,147.2 774.1,147.2 774.1,144.4 753.6,144.4 753.6,126.2 779.5,126.2 779.5,123.4 750.6,123.4 750.6,170.2 
				780.2,170.2 780.2,167.3 753.6,167.3 			"/>
		</g>
		<g>
			<polygon points="817.9,164.8 789.8,123.5 789.7,123.4 786.9,123.4 786.9,170.2 789.8,170.2 789.8,128.8 818,170 818.1,170.2 
				820.8,170.2 820.8,123.4 817.9,123.4 			"/>
		</g>
		<g>
			<path d="M862.9,157.6c-0.7,2.9-2.1,5.3-4.3,7.2c-2.8,2.4-6.4,3.6-10.9,3.6c-5.5,0-9.8-2.3-12.6-6.8c-2.4-3.8-3.6-8.7-3.6-14.7
				c0-6,1.2-11,3.7-14.9c2.9-4.6,7.2-6.9,12.8-6.9c7.6,0,12.3,3,14.4,9.2l0.2,0.5l2.7-1.4l-0.1-0.3c-1-2.7-2.6-4.9-4.9-6.8
				c-3.2-2.6-7.2-3.9-11.8-3.9c-6.8,0-12,2.5-15.4,7.5c-3,4.4-4.5,10.1-4.5,17.1c0,7,1.5,12.6,4.4,16.8c3.4,4.9,8.5,7.4,15.2,7.4
				c5.2,0,9.5-1.4,12.7-4.3c2.4-2.1,4-4.8,4.9-8l0.1-0.3l-2.6-1.4L862.9,157.6z"/>
		</g>
		<g>
			<polygon points="877,167.3 877,147.2 897.6,147.2 897.6,144.4 877,144.4 877,126.2 902.9,126.2 902.9,123.4 874,123.4 874,170.2 
				903.6,170.2 903.6,167.3 			"/>
		</g>
	</g>
</g>
</svg>
